<?xml version="1.0" encoding="UTF-8" standalone="no"?>
<svg
   xmlns:dc="http://purl.org/dc/elements/1.1/"
   xmlns:cc="http://creativecommons.org/ns#"
   xmlns:rdf="http://www.w3.org/1999/02/22-rdf-syntax-ns#"
   xmlns:svg="http://www.w3.org/2000/svg"
   xmlns="http://www.w3.org/2000/svg"
   id="svg4285"
   preserveAspectRatio="xMidYMid meet"
   viewBox="0 0 700.000000 646.000000"
   height="646.000000pt"
   width="700.000000pt"
   version="1.0">
  <defs
     id="defs4295" />
  <metadata
     id="metadata4287">
Created by potrace 1.12, written by Peter Selinger 2001-2015
<rdf:RDF>
  <cc:Work
     rdf:about="">
    <dc:format>image/svg+xml</dc:format>
    <dc:type
       rdf:resource="http://purl.org/dc/dcmitype/StillImage" />
    <dc:title></dc:title>
  </cc:Work>
</rdf:RDF>
</metadata>
  <g
     id="g4289"
     stroke="none"
     fill="#000000"
     transform="translate(0.000000,646.000000) scale(0.100000,-0.100000)">
    <path
       id="path4291"
       d="M3329 6281 c-43 -9 -161 -85 -242 -155 -99 -86 -241 -219 -267 -251 -14 -17 -81 -87 -150 -156 -176 -176 -270 -277 -270 -288 0 -5 -19 -24 -42 -41 -24 -17 -56 -50 -72 -73 -16 -24 -44 -54 -63 -67 -19 -13 -43 -37 -55 -54 -21 -31 -81 -99 -203 -231 -78 -84 -169 -187 -290 -326 -49 -56 -121 -137 -159 -178 -37 -42 -91 -103 -120 -135 -28 -32 -78 -86 -112 -120 -33 -34 -73 -79 -88 -102 -14 -22 -40 -50 -56 -62 -16 -12 -43 -43 -61 -68 -17 -26 -52 -68 -78 -94 -74 -77 -157 -173 -204 -236 -24 -32 -52 -66 -61 -74 -10 -8 -36 -41 -59 -75 -22 -33 -61 -83 -87 -111 -26 -27 -54 -63 -63 -80 -8 -16 -34 -47 -57 -69 -23 -22 -54 -65 -70 -96 -16 -30 -44 -74 -63 -97 -19 -23 -47 -72 -61 -110 -15 -39 -45 -91 -70 -120 -25 -29 -47 -64 -50 -79 -3 -16 -10 -57 -16 -93 -6 -36 -18 -86 -26 -112 -16 -50 -62 -98 -95 -98 -18 0 -19 -11 -19 -289 l0 -289 29 -7 c54 -12 84 -59 106 -167 22 -105 41 -151 75 -177 17 -12 41 -44 56 -72 14 -28 48 -74 77 -102 29 -29 64 -66 78 -82 44 -50 150 -138 193 -160 23 -12 70 -37 106 -57 38 -21 115 -49 185 -68 66 -18 156 -47 200 -65 44 -18 118 -43 165 -55 125 -31 247 -69 312 -96 31 -13 112 -37 180 -54 67 -17 168 -48 223 -69 55 -22 146 -48 203 -60 57 -11 135 -32 175 -47 138 -50 213 -73 327 -99 63 -15 160 -44 215 -65 55 -21 148 -47 208 -59 59 -12 158 -39 220 -61 61 -22 177 -54 257 -70 222 -47 277 -66 331 -117 25 -23 55 -43 65 -43 24 0 269 231 309 291 16 24 52 69 81 99 28 31 58 69 67 86 9 17 31 44 50 61 19 16 52 54 74 84 22 30 48 61 58 69 18 15 124 143 218 263 27 34 63 78 81 97 18 19 47 55 64 80 16 25 46 61 67 80 20 19 47 54 61 77 13 23 38 51 54 63 17 12 48 45 69 73 21 29 56 70 77 92 21 23 55 62 74 87 58 77 172 218 220 272 25 28 55 67 67 86 12 19 31 41 42 47 11 7 38 40 61 73 22 33 54 70 71 82 16 12 43 43 59 68 16 25 45 61 65 80 20 19 51 55 68 80 17 25 54 72 82 105 28 33 61 78 74 100 14 22 46 63 73 92 26 28 48 57 48 63 0 7 26 39 58 73 32 34 73 89 92 122 18 33 48 78 66 99 18 21 45 69 59 107 15 37 42 87 61 111 62 78 67 106 72 465 5 440 -7 510 -98 559 -47 25 -99 31 -131 14 -10 -6 -35 -36 -55 -68 -20 -31 -47 -68 -59 -82 -33 -36 -43 -83 -55 -279 -14 -213 -41 -329 -106 -458 -25 -51 -68 -117 -95 -148 -27 -30 -60 -75 -74 -99 -14 -25 -41 -56 -60 -71 -20 -14 -50 -49 -69 -78 -18 -29 -43 -61 -56 -72 -12 -11 -44 -51 -70 -90 -26 -38 -67 -92 -92 -120 -24 -27 -55 -66 -68 -85 -22 -33 -53 -69 -181 -212 -30 -35 -66 -80 -78 -101 -13 -20 -38 -49 -57 -64 -19 -14 -46 -45 -59 -67 -13 -23 -38 -55 -56 -71 -17 -17 -53 -61 -79 -100 -26 -38 -62 -83 -80 -100 -18 -16 -46 -50 -63 -75 -28 -42 -54 -72 -195 -228 -29 -33 -66 -80 -84 -106 -17 -26 -42 -55 -55 -63 -14 -9 -42 -42 -63 -73 -21 -30 -46 -62 -56 -70 -9 -8 -48 -55 -85 -105 -37 -49 -79 -101 -94 -115 -15 -14 -41 -45 -58 -70 -17 -25 -45 -57 -62 -72 -18 -15 -47 -50 -64 -77 -18 -27 -48 -61 -66 -76 -19 -14 -46 -45 -60 -70 -28 -47 -142 -151 -184 -167 -40 -15 -90 -4 -190 41 -65 29 -132 49 -234 69 -101 21 -163 39 -217 65 -55 26 -120 45 -242 71 -115 24 -192 46 -248 71 -54 24 -130 47 -221 65 -85 18 -173 43 -224 65 -79 34 -172 60 -295 83 -31 5 -99 29 -153 52 -56 24 -155 54 -235 72 -75 17 -171 45 -212 63 -94 41 -127 51 -220 69 -76 14 -101 23 -273 95 -140 59 -165 78 -243 192 -116 168 -109 139 -112 419 -5 302 -1 323 78 429 66 90 111 117 206 127 99 10 377 -41 555 -102 56 -19 167 -48 248 -65 80 -17 184 -44 231 -61 47 -17 157 -47 245 -68 163 -37 278 -71 328 -97 16 -8 94 -28 173 -44 80 -16 214 -52 297 -78 84 -27 202 -59 262 -70 61 -11 175 -41 255 -67 121 -39 162 -47 246 -51 124 -7 157 3 231 68 31 27 60 49 65 49 8 0 62 50 169 156 12 12 59 61 105 110 46 49 95 100 111 114 15 14 39 38 53 54 14 16 55 61 91 100 37 39 96 105 133 146 85 95 196 218 262 290 28 30 73 82 99 115 68 85 142 170 196 224 25 25 59 67 77 93 18 25 42 55 55 65 12 10 36 36 52 58 16 22 54 65 84 96 77 78 166 182 321 374 64 79 160 191 223 261 31 35 57 68 57 73 0 5 31 44 70 86 38 42 70 81 70 87 0 5 24 35 53 66 30 31 64 73 77 92 13 19 41 55 63 80 21 25 57 75 78 112 22 37 53 76 69 88 17 12 42 45 56 73 14 29 43 70 65 92 51 53 81 125 87 206 8 118 -29 176 -130 199 -29 7 -87 27 -128 45 -90 39 -162 57 -335 86 -80 13 -164 34 -218 55 -98 38 -168 55 -337 79 -69 9 -161 31 -230 55 -69 23 -169 47 -250 60 -231 36 -252 40 -375 80 -66 21 -167 46 -225 54 -195 31 -275 48 -397 87 -82 26 -172 45 -270 58 -87 12 -185 33 -239 50 -95 31 -213 45 -275 32z m40 -997 c161 -23 294 -52 395 -84 50 -17 168 -44 261 -61 94 -18 206 -43 250 -56 176 -54 210 -63 286 -73 97 -13 237 -49 394 -100 66 -21 151 -46 188 -56 84 -20 123 -46 165 -108 42 -63 42 -100 -1 -157 -19 -24 -42 -59 -51 -77 -9 -18 -35 -49 -58 -70 -22 -20 -60 -56 -84 -79 -58 -55 -117 -68 -274 -59 -169 9 -299 32 -438 77 -68 22 -178 48 -245 59 -195 32 -276 50 -335 76 -70 31 -139 48 -277 69 -61 9 -177 38 -260 65 -151 48 -214 63 -315 75 -79 10 -128 35 -182 93 -39 42 -48 58 -48 88 0 87 212 334 315 367 96 31 165 33 314 11z" />
  </g>
  <path
     transform="scale(0.8,0.8)"
     id="path4297"
     d="m 491.12672,801.97605 c -7.45282,-6.15865 -15.53375,-9.10818 -40.28073,-14.70239 -9.63877,-2.1789 -23.28808,-5.78834 -30.3318,-8.02099 -7.04372,-2.23265 -21.60298,-6.2993 -32.35392,-9.03701 -10.75094,-2.73769 -22.42971,-6.10671 -25.95281,-7.48668 -3.52311,-1.37996 -15.58215,-4.95383 -26.79785,-7.94191 -11.21572,-2.98807 -26.53225,-7.52182 -34.03676,-10.07502 -7.50451,-2.55318 -20.31755,-6.24857 -28.47343,-8.21198 -8.15589,-1.96341 -18.51388,-4.95378 -23.01774,-6.64528 -4.50387,-1.69149 -17.19806,-5.63651 -28.20931,-8.76673 -11.01125,-3.13021 -23.90336,-7.15282 -28.64914,-8.93912 -4.74578,-1.78631 -16.31703,-5.39819 -25.7139,-8.02641 -9.39686,-2.62823 -22.84825,-6.82843 -29.89197,-9.3338 -7.04372,-2.50535 -19.63478,-6.68737 -27.98013,-9.29337 C 86.53908,678.345 73.672367,670.62329 55.577063,653.17226 47.212598,645.1056 37.715601,634.47808 34.472625,629.55555 c -3.242975,-4.92253 -6.925796,-9.80444 -8.184044,-10.84869 -3.529743,-2.92941 -5.837107,-8.2498 -8.286774,-19.10785 -3.038638,-13.46864 -6.380445,-19.66258 -12.073168,-22.37725 l -4.6673702,-2.22571 0.029176,-35.13742 0.029176,-35.13743 4.3520847,-2.02212 c 5.8067931,-2.69802 9.4729691,-10.30492 12.4642301,-25.86189 2.036222,-10.58999 3.323825,-13.84027 8.214902,-20.73674 3.19011,-4.49808 6.955797,-10.86776 8.368193,-14.15484 3.316213,-7.71784 19.450201,-32.68358 25.71921,-39.79792 2.67126,-3.03146 9.709924,-11.75451 15.641476,-19.38455 17.33468,-22.29843 35.589784,-44.6148 47.182804,-57.6797 5.93155,-6.68463 16.24437,-18.4241 22.91736,-26.08769 6.673,-7.66361 16.38946,-18.50109 21.59216,-24.08332 5.20269,-5.58222 20.97523,-23.1519 35.05009,-39.04374 63.14656,-71.29842 67.96855,-76.53481 129.57898,-140.71516 35.51806,-36.999596 53.10918,-53.276948 69.20628,-64.037686 10.82134,-7.233954 11.93283,-7.663135 21.0363,-8.12284 7.38517,-0.372934 13.48159,0.467324 26.32125,3.627798 9.19047,2.262231 24.29289,5.378044 33.56094,6.924029 9.26805,1.545985 22.31072,4.378723 28.98372,6.294973 16.97536,4.874729 24.55926,6.601757 46.23556,10.528897 10.41768,1.88739 26.11535,5.514128 34.88372,8.059415 8.76837,2.545287 23.52544,5.887605 32.79349,7.427374 21.42745,3.559898 26.85219,4.76344 45.83473,10.168938 8.5266,2.428053 23.58284,5.758747 33.45831,7.401546 9.87546,1.642798 25.09205,5.296944 33.81466,8.120325 8.72259,2.823382 21.26828,6.116175 27.87932,7.31732 20.97408,3.810731 30.17009,6.126791 42.82829,10.786521 6.78169,2.49646 15.19462,5.55171 18.69539,6.78942 3.50078,1.23772 7.89889,4.07326 9.77358,6.30121 2.90319,3.45024 3.40742,5.3846 3.40102,13.04693 -0.009,11.67876 -1.70593,17.45802 -7.45999,25.41791 -2.58255,3.57256 -7.33195,10.43869 -10.55424,15.25808 -3.22229,4.81939 -7.22536,9.97579 -8.89571,11.45868 -1.67034,1.48289 -5.59543,6.6393 -8.72238,11.45868 -3.12695,4.81939 -11.86003,16.34547 -19.40683,25.61352 -7.54681,9.26806 -17.81264,21.92554 -22.81298,28.12774 -5.00034,6.2022 -14.5727,17.72829 -21.27193,25.61352 -6.69923,7.88524 -19.71003,23.43633 -28.91287,34.55799 -9.20286,11.12166 -24.95393,29.3905 -35.00239,40.59741 -10.04847,11.2069 -22.35291,25.15953 -27.34322,31.00584 -4.99031,5.8463 -15.28318,17.90927 -22.87307,26.8066 -46.13619,54.08364 -120.67679,132.37468 -140.0488,147.09521 -11.69849,8.88951 -12.08984,8.99921 -29.41379,8.24479 -12.48121,-0.54353 -18.21326,-1.51351 -28.43872,-4.81243 -7.04372,-2.27243 -21.60298,-6.23887 -32.35392,-8.81431 -10.75094,-2.57543 -27.73675,-7.07994 -37.74625,-10.01002 -10.00949,-2.93007 -25.18108,-6.89056 -33.71464,-8.80109 -8.53355,-1.91053 -19.67762,-5.04028 -24.76457,-6.955 -5.08696,-1.91473 -17.82062,-5.6183 -28.29704,-8.23015 -10.47642,-2.61185 -26.32767,-6.88598 -35.225,-9.49805 -8.89733,-2.61208 -24.66986,-6.79024 -35.05008,-9.28482 -10.38022,-2.49458 -24.79315,-6.36647 -32.02873,-8.6042 -17.60417,-5.44441 -42.89416,-10.68885 -56.63891,-11.74537 -16.727001,-1.28573 -24.389831,1.30755 -33.255293,11.25438 -12.799329,14.36052 -12.885082,14.72635 -12.885082,54.96908 0,31.75574 0.238601,35.49354 2.538581,39.76836 4.662109,8.66514 16.85112,25.15753 22.093488,29.8937 6.944885,6.27428 34.666076,17.91294 54.230616,22.76857 8.52661,2.11616 19.33785,5.41136 24.02498,7.32266 4.68712,1.91128 17.59686,5.89277 28.68829,8.84773 11.09143,2.95497 24.7941,7.21106 30.45036,9.45796 5.65628,2.24691 17.61861,5.84986 26.583,8.00655 8.96438,2.1567 22.22162,6.06169 29.46052,8.67776 7.23891,2.61606 20.67264,6.55148 29.85272,8.74537 9.18008,2.19389 20.46196,5.52114 25.07083,7.3939 4.60888,1.87275 18.17625,5.8067 30.14971,8.74211 11.97347,2.93542 26.48213,7.22397 32.24146,9.53012 5.75934,2.30614 17.58296,5.7525 26.2747,7.65856 8.69175,1.90606 21.73007,5.8223 28.97406,8.70277 17.54827,6.97783 22.80894,6.97492 31.65496,-0.0175 3.65622,-2.89007 9.01876,-8.10713 11.91676,-11.59346 2.89799,-3.48634 8.60559,-10.12712 12.68353,-14.7573 4.07794,-4.63017 11.35757,-13.15602 16.17696,-18.94632 4.81939,-5.7903 10.92495,-13.01243 13.56793,-16.04918 2.64298,-3.03674 9.41979,-11.28439 15.05956,-18.32811 5.63979,-7.04372 13.32064,-16.44657 17.06855,-20.89524 3.7479,-4.44866 10.28098,-12.33493 14.51794,-17.52504 4.23698,-5.19011 12.02714,-14.28965 17.31148,-20.2212 5.28434,-5.93156 12.46318,-14.42446 15.95298,-18.87312 3.4898,-4.44867 9.09215,-11.42498 12.44967,-15.50293 3.35753,-4.07794 9.8641,-12.21893 14.45907,-18.09108 4.59496,-5.87215 11.41296,-14.06173 15.1511,-18.19909 3.73815,-4.13733 8.504,-9.84129 10.59076,-12.67545 2.08678,-2.83417 8.73447,-10.76166 14.77266,-17.61665 10.60573,-12.04042 18.52979,-21.96351 39.96224,-50.04372 5.56083,-7.28565 12.91574,-16.32867 16.34425,-20.09559 11.51365,-12.65013 25.60028,-32.37486 30.88539,-43.24711 6.99412,-14.38796 10.34469,-29.34865 12.77736,-57.05239 1.11218,-12.66583 2.60822,-24.57028 3.32454,-26.45433 1.96716,-5.17403 15.93758,-24.62259 18.35283,-25.54939 7.34426,-2.81827 18.69976,2.42583 22.62717,10.44948 3.51925,7.18977 4.81513,34.40436 3.52197,73.96457 -1.0506,32.13971 -1.66988,35.83264 -7.25615,43.27027 -1.77182,2.35903 -5.48795,8.82513 -8.25805,14.36911 -5.83448,11.67685 -18.40397,30.86164 -27.842,42.49516 -12.17955,15.0128 -19.40577,24.24242 -22.6925,28.98373 -1.79891,2.59505 -9.05489,11.90811 -16.1244,20.6957 -7.06951,8.78758 -14.86896,18.48139 -17.33212,21.5418 -2.46316,3.06042 -7.31624,8.64667 -10.78464,12.41391 -3.46839,3.76723 -9.7556,11.05923 -13.97156,16.20443 -4.21597,5.14521 -11.43136,13.90469 -16.03422,19.46552 -4.60285,5.56084 -12.93915,15.87365 -18.52509,22.91737 -13.03656,16.43872 -23.09623,28.28124 -32.63629,38.42028 -4.18586,4.44867 -8.77021,9.66847 -10.18743,11.59958 -5.44146,7.4145 -54.09966,66.58299 -67.95867,82.63795 -5.56084,6.44194 -13.4471,15.84903 -17.52505,20.90466 -4.07794,5.05564 -10.81103,13.36858 -14.96243,18.47319 -7.77724,9.563 -28.92008,30.33892 -36.01856,35.39348 l -4.01326,2.85769 -6.50507,-5.37547 0,5e-5 z m 141.35584,-534.614 c 12.39081,-6.21505 34.99991,-34.29145 34.99991,-43.46353 0,-5.09731 -5.35406,-13.77367 -11.15152,-18.07126 -5.97171,-4.42676 -62.16767,-20.95729 -84.10379,-24.73988 -6.70267,-1.15578 -19.46631,-4.19334 -28.36364,-6.75014 -8.89733,-2.55679 -26.48977,-6.81324 -39.09432,-9.45875 -12.60455,-2.64551 -29.2225,-6.57575 -36.92877,-8.73384 -7.70629,-2.1581 -20.14233,-5.09836 -27.63564,-6.53391 -46.4173,-8.89248 -59.93728,-6.37077 -79.57704,14.84251 -11.06567,11.95227 -17.1541,21.62635 -17.92311,28.47859 -0.58964,5.25395 -0.15253,6.33771 4.84326,12.00813 6.87912,7.80808 12.30329,10.39712 26.97071,12.87358 6.39075,1.07902 20.71908,4.62422 31.84074,7.87821 11.12166,3.25401 29.32074,7.73476 40.4424,9.95724 11.12166,2.22249 25.37761,5.85569 31.67989,8.07379 6.30227,2.21811 20.2549,5.62244 31.00584,7.56518 10.75094,1.94274 29.55666,6.19806 41.79048,9.45626 28.64145,7.62799 46.98422,10.19943 66.37572,9.3051 6.04934,-0.279 12.2779,-1.40774 14.82888,-2.68728 z"
     style="fill:#60a6c2;fill-opacity:1" />
</svg>
